<svg width="520" height="380" fill="none" xmlns="http://www.w3.org/2000/svg"><path d="M341.92 234.98h-12.27v127.88h12.27V234.98Z" fill="#fff"/><path d="M341.92 364.98h-12.27a2.12 2.12 0 0 1-2.12-2.12V234.98a2.12 2.12 0 0 1 2.12-2.12h12.27a2.12 2.12 0 0 1 2.12 2.12v127.88a2.118 2.118 0 0 1-2.12 2.12Zm-10.15-4.24h8V237.1h-8v123.64Z" fill="#24272D"/><path d="M329.65 234.98h-19.97v127.88h19.97V234.98Z" fill="#FAF9F7"/><path d="M329.65 364.98h-20a2.12 2.12 0 0 1-2.12-2.12V234.98a2.12 2.12 0 0 1 2.12-2.12h20a2.12 2.12 0 0 1 2.12 2.12v127.88a2.118 2.118 0 0 1-2.12 2.12Zm-17.85-4.24h15.73V237.1H311.8v123.64Z" fill="#24272D"/><path d="M341.92 232.86h-32.24a2.118 2.118 0 0 0-2.12 2.12v11.71a2.134 2.134 0 0 0 1.08 1.85l32.24 18.06a2.12 2.12 0 0 0 1 .28 2.06 2.06 0 0 0 1.812-1.083c.175-.321.264-.681.258-1.047v-29.77a2.117 2.117 0 0 0-2.03-2.12Z" fill="#ED746F" fill-opacity=".4"/><path d="M198.6 188.96H82.86a7.07 7.07 0 0 0-7.07 7.07v72.34a7.07 7.07 0 0 0 7.07 7.07H198.6a7.07 7.07 0 0 0 7.07-7.07v-72.34a7.07 7.07 0 0 0-7.07-7.07Z" fill="#FAF9F7"/><path d="M198.59 277.56H82.86a9.201 9.201 0 0 1-9.19-9.19v-72.34a9.2 9.2 0 0 1 9.19-9.19h115.73a9.198 9.198 0 0 1 9.19 9.19v72.34a9.198 9.198 0 0 1-9.19 9.19ZM82.86 191.08a5 5 0 0 0-5 4.95v72.34a5.002 5.002 0 0 0 5 5h115.73a5 5 0 0 0 4.95-5v-72.34a5.003 5.003 0 0 0-4.95-4.95H82.86Z" fill="#24272D"/><path d="M387.12 123H266.27a43.398 43.398 0 0 0-30.68 12.737 43.387 43.387 0 0 0-12.68 30.703v68.59h207.6v-68.59a43.394 43.394 0 0 0-12.691-30.714A43.383 43.383 0 0 0 387.12 123Z" fill="#FAF9F7"/><path d="M430.51 237.1H222.9a2.12 2.12 0 0 1-2.12-2.12v-68.54a45.572 45.572 0 0 1 45.51-45.51h120.83a45.572 45.572 0 0 1 45.51 45.51v68.59a2.122 2.122 0 0 1-2.12 2.07Zm-205.48-4.24h203.36v-66.42a41.315 41.315 0 0 0-12.099-29.171 41.315 41.315 0 0 0-29.171-12.099H266.27a41.31 41.31 0 0 0-41.24 41.27v66.42Z" fill="#24272D"/><path d="M430.51 211.57H309.68a2.12 2.12 0 0 0-2.12 2.12v21.29a2.12 2.12 0 0 0 2.12 2.12h120.83a2.12 2.12 0 0 0 2.12-2.12v-21.29a2.12 2.12 0 0 0-2.12-2.12Z" fill="#ED746F" fill-opacity=".16"/><path d="M348.12 164.74a12.513 12.513 0 0 0-11.565 7.716 12.515 12.515 0 0 0 2.706 13.636 12.51 12.51 0 0 0 21.359-8.842 12.522 12.522 0 0 0-12.5-12.51Z" fill="#ED746F" fill-opacity=".4"/><path d="M348.12 189.75a12.51 12.51 0 1 1 12.5-12.5 12.518 12.518 0 0 1-12.5 12.5Zm0-20.77a8.267 8.267 0 0 0-5.861 14.114 8.264 8.264 0 0 0 9.014 1.797 8.274 8.274 0 0 0 5.107-7.641 8.277 8.277 0 0 0-8.26-8.27Z" fill="#24272D"/><path d="m370.22 107.33-26.34-15.21v30.42l26.34-15.21Z" fill="#ED746F"/><path d="M343.88 124.66a2.118 2.118 0 0 1-1.502-.618 2.106 2.106 0 0 1-.618-1.502V92.12a2.119 2.119 0 0 1 1.06-1.84 2.163 2.163 0 0 1 2.12 0l26.34 15.21a2.126 2.126 0 0 1 1.057 1.84 2.136 2.136 0 0 1-1.057 1.84l-26.34 15.21a2.13 2.13 0 0 1-1.06.28ZM346 95.79v23.08l20-11.54-20-11.54Z" fill="#ED746F"/><path d="M348.12 117.24a2.103 2.103 0 0 1-1.06-.29 2.086 2.086 0 0 1-1.06-1.83V84.7a2.115 2.115 0 0 1 1.058-1.839 2.124 2.124 0 0 1 2.122-.001l26.34 15.21a2.119 2.119 0 0 1 1.06 1.84 2.094 2.094 0 0 1-1.06 1.83l-26.34 15.21a2.144 2.144 0 0 1-1.06.29Zm2.12-28.87v23.07l20-11.53-20-11.54ZM430.51 237.1H222.9a2.12 2.12 0 0 1-2.12-2.12v-68.54a45.572 45.572 0 0 1 45.51-45.51h120.83a45.572 45.572 0 0 1 45.51 45.51v68.59a2.122 2.122 0 0 1-2.12 2.07Zm-205.48-4.24h203.36v-66.42a41.315 41.315 0 0 0-12.099-29.171 41.315 41.315 0 0 0-29.171-12.099H266.27a41.31 41.31 0 0 0-41.24 41.27v66.42Z" fill="#24272D"/><path d="M266.27 120.88a45.57 45.57 0 0 0-45.49 45.56v68.59a2.12 2.12 0 0 0 2.12 2.12h86.78a2.118 2.118 0 0 0 2.12-2.12v-68.59a45.57 45.57 0 0 0-45.53-45.56Z" fill="#ED746F" fill-opacity=".24"/><path d="M266.27 120.88a45.52 45.52 0 0 0-14.08 2.23 2.125 2.125 0 0 0-1.397 2 2.131 2.131 0 0 0 1.397 2 41.148 41.148 0 0 1 28.5 39.24v68.59a2.12 2.12 0 0 0 2.12 2.12h26.85a2.12 2.12 0 0 0 2.12-2.12v-68.5a45.573 45.573 0 0 0-45.51-45.56Z" fill="#fff"/><path d="M266.27 120.88a45.52 45.52 0 0 0-14.08 2.23 2.125 2.125 0 0 0-1.397 2 2.131 2.131 0 0 0 1.397 2 41.148 41.148 0 0 1 28.5 39.24v68.59a2.12 2.12 0 0 0 2.12 2.12h26.85a2.12 2.12 0 0 0 2.12-2.12v-68.5a45.573 45.573 0 0 0-45.51-45.56Z" fill="#ED746F" fill-opacity=".4"/><path d="M404.03 322.54h-62.11a2.118 2.118 0 0 1-2.12-2.12 2.12 2.12 0 0 1 2.12-2.12h62.11a2.12 2.12 0 1 1 0 4.24ZM446.35 322.54h-28.54a2.118 2.118 0 0 1-2.12-2.12 2.12 2.12 0 0 1 2.12-2.12h28.54a2.12 2.12 0 1 1 0 4.24ZM265.36 364.98h-35.74a2.12 2.12 0 1 1 0-4.24h35.74a2.12 2.12 0 1 1 0 4.24ZM353.86 364.98h-74.72a2.12 2.12 0 1 1 0-4.24h74.72a2.118 2.118 0 0 1 2.12 2.12 2.12 2.12 0 0 1-2.12 2.12ZM379.98 364.98h-12.34a2.12 2.12 0 1 1 0-4.24h12.34a2.118 2.118 0 0 1 2.12 2.12 2.12 2.12 0 0 1-2.12 2.12ZM348.12 179.37a2.12 2.12 0 0 1-2.12-2.12V84.7a2.118 2.118 0 0 1 3.619-1.499c.398.398.621.937.621 1.5v92.549a2.118 2.118 0 0 1-2.12 2.12Z" fill="#24272D"/><path d="M341.92 232.86h-12.27a2.12 2.12 0 0 0-2.12 2.12v127.88a2.12 2.12 0 0 0 2.12 2.12h12.27a2.12 2.12 0 0 0 2.12-2.12V234.98a2.12 2.12 0 0 0-2.12-2.12Z" fill="#ED746F" fill-opacity=".16"/><path d="M341.92 364.98h-12.27a2.12 2.12 0 0 1-2.12-2.12V234.98a2.12 2.12 0 0 1 2.12-2.12h12.27a2.12 2.12 0 0 1 2.12 2.12v127.88a2.118 2.118 0 0 1-2.12 2.12Zm-10.15-4.24h8V237.1h-8v123.64Z" fill="#24272D"/><path d="M329.65 364.98h-20a2.12 2.12 0 0 1-2.12-2.12V234.98a2.12 2.12 0 0 1 2.12-2.12h20a2.12 2.12 0 0 1 2.12 2.12v127.88a2.118 2.118 0 0 1-2.12 2.12Zm-17.85-4.24h15.73V237.1H311.8v123.64Z" fill="#24272D"/><g opacity=".24" clip-path="url(#a)" fill="#24272D"><path d="M448.42 163.07a2.106 2.106 0 0 1-1.76-.94 2.138 2.138 0 0 1 .58-3 2.49 2.49 0 0 1 .52-.25 2.115 2.115 0 0 1 1.755.215 2.129 2.129 0 0 1 .93 2.375 2.11 2.11 0 0 1-1.142 1.35 2.125 2.125 0 0 1-.883.2v.05Zm9.86-8a2.131 2.131 0 0 1-.822-4.096 2.13 2.13 0 0 1 1.992 3.746 2.097 2.097 0 0 1-1.18.31l.01.04Zm37.14-.4a2.118 2.118 0 0 1-2.12-2.12 2.118 2.118 0 0 1 2.12-2.12 2.12 2.12 0 1 1 0 4.24Zm-12.6-1.69a2.13 2.13 0 1 1-.007-4.261 2.13 2.13 0 0 1 .007 4.261Zm25-.72a2.126 2.126 0 0 1-2.102-1.821 2.13 2.13 0 1 1 3.292 1.461 2.709 2.709 0 0 1-.51.25c-.232.06-.471.084-.71.07l.03.04Zm-37.58-.92a2.118 2.118 0 0 1-2.12-2.12 2.12 2.12 0 0 1 2.12-2.12 2.12 2.12 0 1 1 0 4.24Zm47.66-6.63a2.132 2.132 0 0 1-1.76-3.3c.081-.117.172-.227.27-.33.248-.244.552-.424.885-.523a2.13 2.13 0 0 1 1.955.4 2.118 2.118 0 0 1 .409 2.813 2.114 2.114 0 0 1-1.759.94Zm-.51-11.77a2.134 2.134 0 0 1-2.112-1.757 2.132 2.132 0 0 1 2.357-2.487c.331.041.648.159.925.344.233.163.436.366.6.6a2.125 2.125 0 0 1 .097 2.177 2.132 2.132 0 0 1-1.867 1.123Zm-11.26-5.3a2.333 2.333 0 0 1-.52-.07 2.108 2.108 0 0 1-1.308-.964 2.103 2.103 0 0 1-.242-1.606 2.16 2.16 0 0 1 2.3-1.59 2.123 2.123 0 0 1 1.913 2.225 2.118 2.118 0 0 1-2.143 2.005ZM241.27 99.57a2.148 2.148 0 0 1-2.142-2.524 2.15 2.15 0 1 1 2.142 2.524Zm69.81-1.6a2.115 2.115 0 0 1-1.596-.756 2.122 2.122 0 0 1-.138-2.543 2.107 2.107 0 0 1 1.504-.925 2.12 2.12 0 0 1 .9.084c.182.06.354.148.51.26a2.118 2.118 0 0 1 .846 2.377 2.118 2.118 0 0 1-2.026 1.503Zm-59.43-.09a2.12 2.12 0 0 1-1-4l.29-.12a2.129 2.129 0 1 1 1.46 4 2 2 0 0 1-.78.12h.03Zm-20.59-1a1.997 1.997 0 0 1-.67-.11 2.084 2.084 0 0 1-.52-.25 2.13 2.13 0 1 1 1.19.36Zm30-3.85a2.1 2.1 0 1 1 .67-.11 2.24 2.24 0 0 1-.67.14v-.03Zm40.79-.37a2.13 2.13 0 1 1 .67-4.14c.178.065.349.149.51.25a2.116 2.116 0 0 1 .862 2.385 2.121 2.121 0 0 1-2.042 1.505Zm-79.94-1.17a2.15 2.15 0 0 1-1.51-.63 2.125 2.125 0 0 1-.25-2.675 2.12 2.12 0 1 1 1.76 3.305Zm70-2.42h-.39a2.121 2.121 0 0 1 .38-4.21 2.12 2.12 0 1 1 .01 4.24v-.03Zm-21.08-.13a2.12 2.12 0 1 1 .68-.11c-.221.083-.454.13-.69.14l.01-.03Zm10.54-1a2.128 2.128 0 0 1-2.089-2.546 2.128 2.128 0 0 1 2.904-1.552 2.131 2.131 0 0 1 1.315 1.968 2.118 2.118 0 0 1-2.15 2.14l.02-.01Zm-66.25-4.46a2.099 2.099 0 0 1-1.76-.95 1.884 1.884 0 0 1-.26-.51 2.118 2.118 0 0 1 .768-2.375 2.12 2.12 0 1 1 1.232 3.835h.02ZM38.37 74.59a2.13 2.13 0 1 1 2.01-1.46 2.14 2.14 0 0 1-2.02 1.47l.01-.01Zm175-1.42a2.121 2.121 0 0 1-2.12-2.12c0-.178.02-.356.06-.53a2.126 2.126 0 0 1 1.623-1.546 2.122 2.122 0 0 1 2.336 3.004 2.128 2.128 0 0 1-1.899 1.192ZM41.6 64.47c-.175 0-.35-.02-.52-.06a2.122 2.122 0 0 1-1.54-2.58.993.993 0 0 1 0-.16 2.12 2.12 0 1 1 2 2.8h.06Zm176-.89a2.108 2.108 0 0 1-2.128-2.215 2.11 2.11 0 0 1 .358-1.075c.08-.12.174-.232.28-.33a2.123 2.123 0 0 1 2.846-.136c.269.222.48.506.613.83a2.13 2.13 0 0 1-.202 1.99 2.124 2.124 0 0 1-1.767.936Zm8.42-6.29a2.13 2.13 0 1 1 1.19-.36 2.08 2.08 0 0 1-.52.25 1.92 1.92 0 0 1-.72.12l.05-.01Zm21-1.52a2.13 2.13 0 0 1 0-4.25 2.13 2.13 0 0 1 0 4.25Zm-10.61-.35a2.12 2.12 0 1 1 0-4.24 2.12 2.12 0 0 1 0 4.24Zm-190.44-.63A2.12 2.12 0 0 1 43.96 52a2.08 2.08 0 0 1 .25-.52 2.12 2.12 0 1 1 1.76 3.31Zm211.3-.91a2.128 2.128 0 0 1-1.796-3.219c.255-.43.654-.756 1.126-.921h.17a2.109 2.109 0 0 1 2.57 1.54 2.13 2.13 0 0 1-1.45 2.55 2.208 2.208 0 0 1-.62.05Zm9.79-4.09a2.12 2.12 0 0 1-1.17-3.89c.158-.105.33-.189.51-.25a2.121 2.121 0 0 1 1.66 3.89 2.06 2.06 0 0 1-.96.2l-.04.05ZM51.7 46a2.12 2.12 0 1 1 1.77-1 2.78 2.78 0 0 1-.27.33 2.15 2.15 0 0 1-1.46.62l-.04.05Zm130.31-2a2.12 2.12 0 1 1 2.13-2.12 2.12 2.12 0 0 1-2.1 2.07l-.03.05Zm93.7-.29a2.13 2.13 0 0 1-1.5-3.62 2.123 2.123 0 0 1 2.84-.123 2.118 2.118 0 0 1 .409 2.813 2.113 2.113 0 0 1-1.759.94l.01-.01Zm-104.29-.29a2.324 2.324 0 0 1-.52-.07 2.114 2.114 0 0 1-1.308-.964 2.13 2.13 0 0 1-.242-1.606 2.154 2.154 0 0 1 2.29-1.59 2.12 2.12 0 0 1-.22 4.23Zm21.12-.53a2.12 2.12 0 1 1 .68-.11 2.25 2.25 0 0 1-.64.1l-.04.01Zm-31.61-1a1.87 1.87 0 0 1-.4 0 2.119 2.119 0 0 1-1.026-3.64 2.122 2.122 0 0 1 1.416-.56 2.12 2.12 0 1 1 .01 4.24v-.04Zm-10.34-2.38a2.272 2.272 0 0 1-.62-.09 2.12 2.12 0 1 1 1.12-4.09l.17.05a2.12 2.12 0 0 1-.67 4.13Zm51.87-.23a2.14 2.14 0 1 1 1.18-.37c-.156.112-.328.2-.51.26a2.24 2.24 0 0 1-.63.01l-.04.1Zm-143.42-.86a2.13 2.13 0 0 1-1.76-3.3 2.24 2.24 0 0 1 .6-.59 2.12 2.12 0 1 1 1.16 3.89Zm81.3-1.69a1.841 1.841 0 0 1-.61-.09 2.12 2.12 0 1 1 1.12-4.09h.16a2.12 2.12 0 0 1-.67 4.13v.05Zm139.67-2.39a2.112 2.112 0 0 1-2.12-2.12 2.121 2.121 0 1 1 2.12 2.13v-.01Zm-149.88-.46a2.13 2.13 0 0 1-2.07-2.64 2.115 2.115 0 0 1 1.752-1.583c.276-.04.557-.026.828.043h.16a2.12 2.12 0 0 1-.67 4.13v.05Zm81.22-.55a2.12 2.12 0 1 1-.005-4.24 2.12 2.12 0 0 1 .005 4.24Zm-143.48-.92a2.13 2.13 0 1 1 1.19-.36c-.16.107-.336.191-.52.25a1.92 1.92 0 0 1-.67.11Zm52-1.12a2.84 2.84 0 0 1-.4 0 2.12 2.12 0 0 1 .39-4.21c.231 0 .461.038.68.11a2.134 2.134 0 0 1 1.399 2.35 2.127 2.127 0 0 1-2.069 1.79v-.04Zm-10.39-2.17c-.13.015-.26.015-.39 0a2.121 2.121 0 0 1-1.066-3.664 2.119 2.119 0 0 1 1.446-.546 2.128 2.128 0 0 1 2.02 2.8 2.115 2.115 0 0 1-2.04 1.41h.03Zm-31.64-.35a2.15 2.15 0 1 1 .68-.12 2 2 0 0 1-.71.12h.03Zm21.12-1.07a2.11 2.11 0 1 1 .039-4.22 2.11 2.11 0 0 1-.039 4.22Zm121.25-.25a2.131 2.131 0 1 1 1.18-.36c-.156.112-.328.2-.51.26-.227.07-.463.104-.7.1h.03Zm-131.85 0a2.13 2.13 0 1 1 2.13-2.12 2.121 2.121 0 0 1-2.17 2.1l.04.02Zm188.6-3.18a2.11 2.11 0 0 1-1.76-.94 2.222 2.222 0 0 1-.26-.51 2.14 2.14 0 1 1 2 1.45h.02Zm-47.38-1.78a2.121 2.121 0 0 1-.67-4.14 2.119 2.119 0 0 1 2.635 2.805c-.203.503-.591.91-1.085 1.135a2.09 2.09 0 0 1-.91.18l.03.02Zm9.66-4.4a2.12 2.12 0 0 1-.67-4.13 2.12 2.12 0 0 1 1.56 3.94 2.161 2.161 0 0 1-.92.17l.03.02Zm30.37-1.38a2.1 2.1 0 0 1-1.17-.35 2.127 2.127 0 0 1-.858-2.175 2.127 2.127 0 0 1 1.665-1.641 2.12 2.12 0 0 1 2.193 3.226 2.113 2.113 0 0 1-1.86.92l.03.02Zm-20.39-2.2a2.12 2.12 0 1 1 .68-.11h-.17a2.221 2.221 0 0 1-.54.09l.03.02Zm10.5-1.25c-.175 0-.35-.02-.52-.06a2.133 2.133 0 0 1-1.55-2.58 2.163 2.163 0 0 1 2.3-1.59 2.123 2.123 0 0 1 1.913 2.225 2.119 2.119 0 0 1-2.143 2.005ZM18.27 114.24a2.126 2.126 0 0 1-1.51-.63l-5-5.06a2.121 2.121 0 1 1 3-3l3.47 3.53 9.22-9.37a2.121 2.121 0 0 1 3 3l-10.73 10.91a2.135 2.135 0 0 1-1.45.62ZM61.49 109.59H39.03a2.119 2.119 0 0 1-1.5-3.619 2.119 2.119 0 0 1 1.5-.621h22.46a2.119 2.119 0 0 1 1.5 3.619 2.119 2.119 0 0 1-1.5.621Z"/><path d="M87.16 125.03h-80a7.132 7.132 0 0 1-7.12-7.12V97.03a7.14 7.14 0 0 1 7.12-7.13h48.11a2.13 2.13 0 0 1 0 4.25H7.12a2.88 2.88 0 0 0-2.88 2.88v20.85a2.878 2.878 0 0 0 2.88 2.88h80a2.881 2.881 0 0 0 2.88-2.88 2.12 2.12 0 1 1 4.24 0 7.12 7.12 0 0 1-7.08 7.15ZM18.27 157.28a2.094 2.094 0 0 1-1.51-.64l-5-5.06a2.121 2.121 0 1 1 3-3l3.47 3.53 9.22-9.37a2.12 2.12 0 0 1 3 3l-10.73 10.9a2.1 2.1 0 0 1-1.45.64ZM78.19 152.62H39.03a2.123 2.123 0 0 1-2.12-2.12 2.12 2.12 0 0 1 2.12-2.12h39.16a2.118 2.118 0 0 1 1.5 3.619 2.123 2.123 0 0 1-1.5.621Z"/><path d="M87.16 168.07h-80a7.14 7.14 0 0 1-7.12-7.13v-20.88a7.13 7.13 0 0 1 7.12-7.12h80a7.12 7.12 0 0 1 7.12 7.12v20.88a7.13 7.13 0 0 1-7.12 7.13Zm-80-30.89a2.875 2.875 0 0 0-2.66 1.778c-.145.349-.22.724-.22 1.102v20.88a2.89 2.89 0 0 0 2.88 2.89h80a2.89 2.89 0 0 0 2.88-2.89v-20.88a2.88 2.88 0 0 0-2.88-2.88h-80ZM123.49 120.32 104.6 102.4a22.995 22.995 0 0 0 2.622-24.273A23 23 0 0 0 86.53 65.17h-.62a23.002 23.002 0 0 0 .6 46h.62a22.937 22.937 0 0 0 14.55-5.71l18.89 17.91a2.108 2.108 0 0 0 2.651.226 2.114 2.114 0 0 0 .882-2.212 2.12 2.12 0 0 0-.613-1.084v.02Zm-36.47-13.37a18.773 18.773 0 1 1-1-37.53h.51a18.751 18.751 0 0 1 13.62 31.66 18.749 18.749 0 0 1-13.13 5.87ZM452.79 298.88a2.134 2.134 0 0 1-1.73-.89l-6.58-9.29-11.25 1.67a2.125 2.125 0 0 1-1.989-.802 2.118 2.118 0 0 1-.271-2.128l10.91-25.55a2.118 2.118 0 0 1 2.785-1.115 2.121 2.121 0 0 1 1.115 2.785l-9.42 22.06 8.79-1.3a2.094 2.094 0 0 1 2 .87l5.14 7.25 10.14-23.75a2.133 2.133 0 0 1 1.95-1.273 2.127 2.127 0 0 1 1.95 1.273l10.14 23.75 5.14-7.25c.221-.315.525-.563.878-.717.352-.153.741-.206 1.122-.153l8.8 1.3-9.43-22.06a2.108 2.108 0 0 1-.019-1.623 2.115 2.115 0 0 1 1.944-1.333 2.115 2.115 0 0 1 1.507.603c.199.195.358.427.468.683l10.91 25.55a2.119 2.119 0 0 1-2.26 2.93l-11.25-1.67-6.58 9.29a2.104 2.104 0 0 1-2 .88 2.144 2.144 0 0 1-1.73-1.28l-9.68-22.66-9.68 22.66a2.11 2.11 0 0 1-1.73 1.28l-.09.01ZM464.42 243.57a19.52 19.52 0 1 1 19.52-19.52 19.543 19.543 0 0 1-19.52 19.52Zm0-34.79a15.275 15.275 0 0 0-14.986 18.265 15.286 15.286 0 0 0 12.011 12.002 15.275 15.275 0 0 0 15.685-6.505 15.287 15.287 0 0 0 2.57-8.492 15.3 15.3 0 0 0-15.28-15.27Z"/><path d="M472.13 259.94a2.142 2.142 0 0 1-.82-.17l-6.89-2.86-6.89 2.86a2.123 2.123 0 0 1-2.4-.54l-5-5.58-7.45-.4a2.127 2.127 0 0 1-1.93-1.54l-.48-1.83a2.128 2.128 0 0 1 .184-1.614 2.125 2.125 0 0 1 2.096-1.08 2.136 2.136 0 0 1 1.421.788c.173.218.302.468.379.736l.11.36 6.82.38c.563.03 1.091.282 1.47.7l4.55 5.11 6.31-2.63a2.094 2.094 0 0 1 1.63 0l6.31 2.63 4.55-5.11a2.101 2.101 0 0 1 1.46-.7l6.83-.38 1.88-6.57a2.122 2.122 0 0 1 1-1.27l6-3.3-1.16-6.74a2.117 2.117 0 0 1 .36-1.58l4-5.57-4-5.57a2.119 2.119 0 0 1-.36-1.59l1.16-6.74-6-3.3a2.122 2.122 0 0 1-1-1.27l-1.88-6.57-6.83-.37a2.152 2.152 0 0 1-1.46-.71l-4.55-5.1-6.31 2.62a2.094 2.094 0 0 1-1.63 0l-6.34-2.56-4.55 5.1a2.19 2.19 0 0 1-1.47.71l-5.56.3a2.124 2.124 0 0 1-.23-4.24l4.68-.25 5-5.57a2.108 2.108 0 0 1 2.4-.55l6.89 2.87 6.89-2.87a2.107 2.107 0 0 1 2.4.55l5 5.57 7.46.41a2.12 2.12 0 0 1 1.92 1.53l2.06 7.17 6.53 3.6c.385.215.695.543.887.94.191.398.255.845.183 1.28l-1.26 7.36 4.33 6.08a2.133 2.133 0 0 1 0 2.46l-4.33 6.08 1.26 7.35a2.144 2.144 0 0 1-1.07 2.22l-6.53 3.6-2.06 7.17a2.127 2.127 0 0 1-1.92 1.54l-7.45.4-5 5.58a2.118 2.118 0 0 1-1.6.67ZM87.94 341.27a2.125 2.125 0 0 1-1.968-1.306 2.123 2.123 0 0 1-.162-.814v-2.94a2.13 2.13 0 0 1 4.25 0v2.94a2.12 2.12 0 0 1-2.12 2.12ZM87.94 354.21a2.128 2.128 0 0 1-2.13-2.13v-2.93a2.13 2.13 0 0 1 4.25 0v2.93a2.126 2.126 0 0 1-.617 1.506 2.116 2.116 0 0 1-1.503.624ZM82.94 346.27H80a2.118 2.118 0 0 1-2.12-2.12 2.12 2.12 0 0 1 2.12-2.12h2.94a2.118 2.118 0 0 1 1.5 3.619 2.118 2.118 0 0 1-1.5.621ZM95.87 346.27h-2.94a2.118 2.118 0 0 1-1.5-3.619 2.118 2.118 0 0 1 1.5-.621h2.94a2.118 2.118 0 0 1 1.499 3.619 2.118 2.118 0 0 1-1.5.621ZM190.91 107.68a2.12 2.12 0 0 1-2.12-2.12v-2.94a2.12 2.12 0 1 1 4.24 0v2.94a2.118 2.118 0 0 1-2.12 2.12ZM190.91 120.62a2.124 2.124 0 0 1-2.12-2.12v-2.94a2.118 2.118 0 0 1 2.12-2.12 2.12 2.12 0 0 1 2.12 2.12v2.94a2.12 2.12 0 0 1-2.12 2.12ZM185.92 112.68h-2.94a2.118 2.118 0 0 1-2.12-2.12 2.118 2.118 0 0 1 2.12-2.12h2.94a2.12 2.12 0 1 1 0 4.24ZM198.85 112.68h-2.94a2.12 2.12 0 1 1 0-4.24h2.94a2.12 2.12 0 1 1 0 4.24ZM412.2 43.7h-7.8a2.132 2.132 0 0 0-2.1 2.974 2.137 2.137 0 0 0 2.1 1.276h5.39a8.243 8.243 0 0 1-7.438 6.082A8.239 8.239 0 1 1 406 38.7a2.122 2.122 0 1 0 2.15-3.66 12.5 12.5 0 1 0 6.17 10.78 2.13 2.13 0 0 0-.621-1.5 2.124 2.124 0 0 0-1.499-.62Z"/><path d="M401.82 19.62a26.214 26.214 0 0 0-24.216 16.182 26.215 26.215 0 0 0 5.686 28.565 26.212 26.212 0 0 0 40.328-3.983 26.217 26.217 0 0 0 4.412-14.564 26.23 26.23 0 0 0-26.21-26.2Zm0 48.17a22.002 22.002 0 0 1-20.326-13.581A22 22 0 1 1 401.82 67.79ZM472.64 109.07h-34.61a2.118 2.118 0 0 0-2.12 2.12 2.12 2.12 0 0 0 2.12 2.12h34.61a2.12 2.12 0 1 0 0-4.24ZM460.19 99.88a2.121 2.121 0 0 0 0-4.24h-9.71a2.12 2.12 0 1 0 0 4.24h9.71Z"/><path d="M499.05 95.59h-4.2c0-.42.07-.85.07-1.27a17.678 17.678 0 0 0-5.743-13.023A17.692 17.692 0 0 0 475.7 76.72a20.328 20.328 0 0 0-33.199-6.758A20.33 20.33 0 0 0 436.7 81.72a16.642 16.642 0 0 0-14.51 13.86h-7.82a2.121 2.121 0 0 0 0 4.24h9.72a2.099 2.099 0 0 0 1.89-1.18c.039-.091.073-.185.1-.28v-.13c.005-.08.005-.16 0-.24a.752.752 0 0 1 0-.15A12.39 12.39 0 0 1 438.4 85.9a2.107 2.107 0 0 0 2.045-1.193c.121-.253.191-.527.205-.807a16.08 16.08 0 0 1 31.47-4.14 2.108 2.108 0 0 0 2.43 1.46 14.257 14.257 0 0 1 2.58-.25 13.44 13.44 0 0 1 13.42 13.43c0 .42 0 .84-.07 1.27h-18.57a2.121 2.121 0 0 0 0 4.24h27a2.121 2.121 0 0 0 0-4.24l.14-.08ZM376.97 295.18a1.794 1.794 0 0 1-.51-.07h-.17a2.1 2.1 0 1 1 .68.12v-.05Zm12.36-1.43a2.12 2.12 0 0 1-1.17-3.88 2.119 2.119 0 1 1 2.17 3.63 2.089 2.089 0 0 1-1 .25Zm-20.78-7.32a2.132 2.132 0 0 1-1.755-3.368c.228-.32.541-.57.903-.723a2.123 2.123 0 0 1 2.203.333c.301.253.525.585.649.958a1.607 1.607 0 0 0 0 .17 2.135 2.135 0 0 1-.242 1.606 2.123 2.123 0 0 1-1.758 1.024Zm29.92-1.41a2.115 2.115 0 0 1-1.49-3.62 2.117 2.117 0 0 1 1.915-.579 2.122 2.122 0 0 1 .576 3.952 2.128 2.128 0 0 1-1.001.247Zm8.43-9.53a2.118 2.118 0 0 1-2.095-1.815 2.12 2.12 0 1 1 2.095 1.815Zm-35.45-.87a2.13 2.13 0 1 1 .596-4.171c.473.141.882.441 1.157.85a2.13 2.13 0 0 1-1.753 3.321Zm46.09-6a2.13 2.13 0 1 1 .71-.11 1.996 1.996 0 0 1-.71.12v-.01Zm-35.45-.91a2.131 2.131 0 0 1-.822-4.096 2.13 2.13 0 0 1 2.332 3.466 2.098 2.098 0 0 1-1.51.64v-.01Zm1.89-11.92a2.12 2.12 0 1 1 .302-4.217 2.123 2.123 0 0 1 1.698 1.417.805.805 0 0 1 0 .17 2.128 2.128 0 0 1-1.54 2.57 2.39 2.39 0 0 1-.46.07v-.01ZM106.04 311.36a2.122 2.122 0 0 1-2.079-2.534 2.115 2.115 0 0 1 1.665-1.665 2.121 2.121 0 0 1 1.91 3.582 2.119 2.119 0 0 1-1.506.617h.01Zm-12.74 0a2.122 2.122 0 0 1-1.486-3.623 2.123 2.123 0 0 1 3.26.326 2.122 2.122 0 0 1-1.804 3.297h.03Zm-12.73 0a2.12 2.12 0 1 1 .804-.158 2.144 2.144 0 0 1-.814.158h.01Zm-12.74 0a2.121 2.121 0 1 1 .808-.156c-.26.106-.538.159-.818.156h.01Zm-12.73 0a2.121 2.121 0 0 1-1.486-3.623 2.123 2.123 0 0 1 3.26.326 2.122 2.122 0 0 1-1.784 3.297h.01Zm-12.73 0a2.12 2.12 0 1 1 .804-.158 2.144 2.144 0 0 1-.814.158h.01Zm-12.46-1.94a2.21 2.21 0 0 1-.67-.11 2.12 2.12 0 1 1 2.68-1.35 2.136 2.136 0 0 1-2.01 1.46Zm-9.62-8.09a2.166 2.166 0 0 1-1.69-.82 2.121 2.121 0 0 1 3.18-2.8c.103.099.194.209.27.33a2.11 2.11 0 0 1-1.76 3.29Zm-3.85-12a2.118 2.118 0 0 1-2.12-2.12 2.12 2.12 0 1 1 2.12 2.13v-.01Zm0-12.8a2.118 2.118 0 0 1-2.12-2.12 2.12 2.12 0 1 1 2.12 2.13v-.01Zm0-12.77a2.106 2.106 0 0 1-1.958-1.3 2.123 2.123 0 0 1 1.147-2.769 2.122 2.122 0 0 1 2.77 2.77 2.118 2.118 0 0 1-1.959 1.309v-.01Zm0-12.76a2.106 2.106 0 0 1-1.958-1.3 2.123 2.123 0 0 1 1.147-2.769 2.122 2.122 0 0 1 2.77 2.77 2.118 2.118 0 0 1-1.959 1.309V251Zm0-12.76a2.106 2.106 0 0 1-1.958-1.3 2.123 2.123 0 0 1 1.147-2.769 2.122 2.122 0 0 1 2.77 2.77 2.118 2.118 0 0 1-1.959 1.309v-.01Zm0-12.75a2.118 2.118 0 0 1-2.12-2.12 2.12 2.12 0 1 1 2.12 2.13v-.01Zm0-12.76a2.106 2.106 0 0 1-1.958-1.3 2.112 2.112 0 0 1 .195-1.988 2.122 2.122 0 0 1 3.262-.321 2.118 2.118 0 0 1-.321 3.262 2.12 2.12 0 0 1-1.178.357v-.01Zm0-12.76a2.113 2.113 0 0 1-1.998-1.275 2.108 2.108 0 0 1-.172-.815 2.123 2.123 0 0 1 1.309-1.959 2.122 2.122 0 0 1 2.77 2.77A2.118 2.118 0 0 1 16.39 200l.05-.03Zm0-12.76a2.118 2.118 0 0 1-2.12-2.12 2.12 2.12 0 1 1 2.12 2.13v-.01ZM252.09 151.58a2.118 2.118 0 0 1-2.12-2.12 2.118 2.118 0 0 1 2.12-2.12 2.12 2.12 0 1 1 0 4.24Zm-12.77 0a2.118 2.118 0 0 1-2.12-2.12 2.118 2.118 0 0 1 2.12-2.12 2.12 2.12 0 1 1 0 4.24Zm-12.76 0a2.118 2.118 0 0 1-2.12-2.12 2.118 2.118 0 0 1 2.12-2.12 2.12 2.12 0 1 1 0 4.24Zm-12.75 0a2.118 2.118 0 0 1-2.12-2.12 2.118 2.118 0 0 1 2.12-2.12 2.12 2.12 0 1 1 0 4.24Zm-12.75 0a2.118 2.118 0 0 1-2.12-2.12 2.118 2.118 0 0 1 2.12-2.12 2.12 2.12 0 1 1 0 4.24Zm-12.75 0a2.118 2.118 0 0 1-2.12-2.12 2.118 2.118 0 0 1 2.12-2.12 2.12 2.12 0 1 1 0 4.24Zm-12.74 0a2.118 2.118 0 0 1-2.12-2.12 2.118 2.118 0 0 1 2.12-2.12 2.12 2.12 0 1 1 0 4.24Zm-12.75 0a2.118 2.118 0 0 1-2.12-2.12 2.118 2.118 0 0 1 2.12-2.12 2.12 2.12 0 1 1 0 4.24Zm-12.75 0a2.118 2.118 0 0 1-2.12-2.12 2.118 2.118 0 0 1 2.12-2.12 2.12 2.12 0 1 1 0 4.24Zm-12.75 0a2.118 2.118 0 0 1-2.12-2.12 2.118 2.118 0 0 1 2.12-2.12 2.12 2.12 0 1 1 0 4.24Zm-12.75 0a2.118 2.118 0 0 1-2.12-2.12 2.118 2.118 0 0 1 2.12-2.12 2.12 2.12 0 1 1 0 4.24Zm-12.74 0a2.118 2.118 0 0 1-2.12-2.12 2.118 2.118 0 0 1 2.12-2.12 2.12 2.12 0 1 1 0 4.24ZM54.44 238.32a2.118 2.118 0 0 1-1.5-3.619 2.118 2.118 0 1 1 2.998 2.998 2.118 2.118 0 0 1-1.498.621Zm-12.74 0a2.118 2.118 0 0 1-2.12-2.12 2.12 2.12 0 0 1 2.12-2.12 2.118 2.118 0 0 1 2.12 2.12 2.12 2.12 0 0 1-2.12 2.12Zm-12.73 0a2.118 2.118 0 0 1-1.5-3.619 2.119 2.119 0 1 1 2.998 2.998 2.119 2.119 0 0 1-1.498.621Z"/></g><path d="M266.27 120.88a45.57 45.57 0 0 0-45.49 45.56v68.59a2.126 2.126 0 0 0 .624 1.503 2.123 2.123 0 0 0 1.506.617h86.77a2.118 2.118 0 0 0 2.12-2.12v-68.59a45.57 45.57 0 0 0-45.53-45.56Zm41.27 112h-82.51v-66.44a41.27 41.27 0 1 1 82.53 0l-.02 66.44Z" fill="#24272D"/><path d="M266.29 121a45.572 45.572 0 0 0-45.51 45.51v68.59a2.126 2.126 0 0 0 .625 1.503 2.104 2.104 0 0 0 1.505.617h86.77a2.118 2.118 0 0 0 1.502-.618 2.106 2.106 0 0 0 .618-1.502v-68.59A45.573 45.573 0 0 0 266.29 121Zm41.27 112h-82.53v-66.47a41.268 41.268 0 0 1 70.219-28.766 41.268 41.268 0 0 1 12.311 28.766V233Z" fill="#24272D"/><path d="M190.09 195.34H74.35a9.19 9.19 0 0 0-9.19 9.19v72.34a9.19 9.19 0 0 0 9.19 9.19h115.74a9.19 9.19 0 0 0 9.19-9.19v-72.34a9.19 9.19 0 0 0-9.19-9.19Z" fill="#ED746F" fill-opacity=".64"/><path d="M198.59 277.56H82.86a9.201 9.201 0 0 1-9.19-9.19v-72.34a9.2 9.2 0 0 1 9.19-9.19h115.73a9.198 9.198 0 0 1 9.19 9.19v72.34a9.198 9.198 0 0 1-9.19 9.19ZM82.86 191.08a5 5 0 0 0-5 4.95v72.34a5.002 5.002 0 0 0 5 5h115.73a5 5 0 0 0 4.95-5v-72.34a5.003 5.003 0 0 0-4.95-4.95H82.86Z" fill="#24272D"/><path d="M75.79 270.49a2.123 2.123 0 0 1-1.993-1.373 2.122 2.122 0 0 1 .593-2.347l33.43-29.21a2.126 2.126 0 0 1 1.553-.566 2.124 2.124 0 0 1 1.905 1.454 2.108 2.108 0 0 1-.136 1.648 2.13 2.13 0 0 1-.532.654l-33.43 29.21a2.119 2.119 0 0 1-1.39.53ZM205.66 270.49a2.119 2.119 0 0 1-1.39-.53l-33.43-29.21a2.118 2.118 0 0 1 1.27-3.664 2.116 2.116 0 0 1 1.52.474l33.43 29.21a2.124 2.124 0 0 1 .593 2.347 2.12 2.12 0 0 1-1.993 1.373ZM140.73 251.7a11.68 11.68 0 0 1-7.7-2.83l-58.64-51.24a2.12 2.12 0 0 1 2.79-3.19l58.64 51.24a7.68 7.68 0 0 0 9.81 0l58.64-51.24a2.123 2.123 0 0 1 3.04.156 2.129 2.129 0 0 1 .517 1.57 2.114 2.114 0 0 1-.767 1.464l-58.64 51.24a11.67 11.67 0 0 1-7.69 2.83Z" fill="#24272D"/><path d="M280.78 215.46H140.32a8.58 8.58 0 0 0-8.58 8.58v87.79a8.58 8.58 0 0 0 8.58 8.58h140.46a8.58 8.58 0 0 0 8.58-8.58v-87.79a8.58 8.58 0 0 0-8.58-8.58Z" fill="#FAF9F7"/><path d="M280.77 322.54H140.32a10.722 10.722 0 0 1-10.7-10.71v-87.78c0-2.839 1.127-5.561 3.133-7.57a10.714 10.714 0 0 1 7.567-3.14h140.45a10.72 10.72 0 0 1 10.71 10.71v87.78a10.72 10.72 0 0 1-10.71 10.71Zm-140.45-105a6.471 6.471 0 0 0-6.46 6.47v87.78a6.483 6.483 0 0 0 6.46 6.47h140.45a6.481 6.481 0 0 0 6.47-6.47v-87.78a6.47 6.47 0 0 0-6.47-6.47H140.32Z" fill="#24272D"/><path d="M270.68 223.44H130.24c-5.915 0-10.71 4.795-10.71 10.71v87.77c0 5.915 4.795 10.71 10.71 10.71h140.44c5.915 0 10.71-4.795 10.71-10.71v-87.77c0-5.915-4.795-10.71-10.71-10.71Z" fill="#ED746F"/><path d="M280.77 322.54H140.32a10.722 10.722 0 0 1-10.7-10.71v-87.78c0-2.839 1.127-5.561 3.133-7.57a10.714 10.714 0 0 1 7.567-3.14h140.45a10.72 10.72 0 0 1 10.71 10.71v87.78a10.72 10.72 0 0 1-10.71 10.71Zm-140.45-105a6.471 6.471 0 0 0-6.46 6.47v87.78a6.483 6.483 0 0 0 6.46 6.47h140.45a6.481 6.481 0 0 0 6.47-6.47v-87.78a6.47 6.47 0 0 0-6.47-6.47H140.32Z" fill="#24272D"/><path d="M131.74 313.95a2.12 2.12 0 0 1-1.39-3.72l40.57-35.45a2.123 2.123 0 0 1 3.04.156 2.124 2.124 0 0 1 .282 2.38 2.13 2.13 0 0 1-.532.654l-40.57 35.47a2.143 2.143 0 0 1-1.4.51ZM289.36 313.95a2.141 2.141 0 0 1-1.4-.52l-40.57-35.46a2.118 2.118 0 0 1 1.27-3.664 2.116 2.116 0 0 1 1.52.474l40.58 35.45a2.124 2.124 0 0 1 .593 2.347 2.12 2.12 0 0 1-1.993 1.373ZM210.55 291.15a13.75 13.75 0 0 1-9-3.31l-71.16-62.2a2.13 2.13 0 0 1-.767-1.464 2.108 2.108 0 0 1 .517-1.57 2.122 2.122 0 0 1 1.487-.722 2.117 2.117 0 0 1 1.553.566l71.09 62.19a9.78 9.78 0 0 0 12.5 0l71.16-62.19a2.12 2.12 0 0 1 3.518 1.733 2.124 2.124 0 0 1-.718 1.457l-71.17 62.19a13.707 13.707 0 0 1-9.01 3.32Z" fill="#24272D"/><path d="M210.55 247.63c17.767 0 32.17-14.403 32.17-32.17 0-17.767-14.403-32.17-32.17-32.17-17.767 0-32.17 14.403-32.17 32.17 0 17.767 14.403 32.17 32.17 32.17Z" fill="#FAF9F7"/><path d="M210.55 249.75a34.288 34.288 0 0 1-31.678-21.163 34.293 34.293 0 0 1 7.424-37.367 34.294 34.294 0 0 1 52.755 5.175 34.284 34.284 0 0 1 5.789 19.045 34.33 34.33 0 0 1-34.29 34.31Zm0-64.33a30.001 30.001 0 0 0-21.146 51.231 30.012 30.012 0 0 0 15.362 8.196 30.005 30.005 0 0 0 30.782-12.765 30.004 30.004 0 0 0 5.052-16.662 30.08 30.08 0 0 0-30.05-29.98v-.02Z" fill="#24272D"/><path d="M210.55 181.18a34.177 34.177 0 0 0-10.17 1.53 2.116 2.116 0 0 0-1.49 2 2.1 2.1 0 0 0 1.49 2 30.06 30.06 0 0 1 0 57.4 2.116 2.116 0 0 0-1.49 2 2.1 2.1 0 0 0 1.49 2 34.287 34.287 0 0 0 44.19-27.564 34.3 34.3 0 0 0-7.938-27.544 34.284 34.284 0 0 0-26.082-11.892v.07Z" fill="#ED746F" fill-opacity=".16"/><path d="M205.2 227.74a2.16 2.16 0 0 1-1.52-.63l-9.28-9.44a2.131 2.131 0 0 1-.621-1.5 2.131 2.131 0 0 1 1.309-1.96 2.134 2.134 0 0 1 1.624 0c.257.107.491.263.688.46l7.78 7.9 18.48-18.78a2.12 2.12 0 0 1 3.621 1.5 2.12 2.12 0 0 1-.621 1.5l-20 20.32a2.15 2.15 0 0 1-1.46.63Z" fill="#24272D"/><path d="M210.55 249.75a34.288 34.288 0 0 1-31.678-21.163 34.293 34.293 0 0 1 7.424-37.367 34.294 34.294 0 0 1 52.755 5.175 34.284 34.284 0 0 1 5.789 19.045 34.33 34.33 0 0 1-34.29 34.31Zm0-64.33a30.001 30.001 0 0 0-21.146 51.231 30.012 30.012 0 0 0 15.362 8.196 30.005 30.005 0 0 0 30.782-12.765 30.004 30.004 0 0 0 5.052-16.662 30.08 30.08 0 0 0-30.05-29.98v-.02Z" fill="#24272D"/><path d="M140.73 215.46c14.636 0 26.5-11.864 26.5-26.5s-11.864-26.5-26.5-26.5-26.5 11.864-26.5 26.5 11.864 26.5 26.5 26.5Z" fill="#FAF9F7"/><path d="M140.73 217.58a28.633 28.633 0 0 1-26.459-17.669 28.626 28.626 0 0 1 6.204-31.205 28.626 28.626 0 0 1 31.206-6.205 28.631 28.631 0 0 1 17.669 26.459 28.663 28.663 0 0 1-28.62 28.62Zm0-53a24.389 24.389 0 0 0-23.933 29.142 24.396 24.396 0 0 0 19.161 19.169 24.394 24.394 0 0 0 29.152-23.921 24.42 24.42 0 0 0-24.38-24.4v.01Z" fill="#24272D"/><path d="M140.73 160.33c-2.882 0-5.748.435-8.5 1.29a2.116 2.116 0 0 0-1.49 2 2.14 2.14 0 0 0 1.49 2 24.39 24.39 0 0 1 0 46.58 2.122 2.122 0 0 0 0 4 28.63 28.63 0 1 0 8.5-56v.13Z" fill="#ED746F" fill-opacity=".16"/><path d="M136.27 199.44a2.15 2.15 0 0 1-1.51-.63l-7.65-7.78a2.12 2.12 0 0 1 1.5-3.621 2.12 2.12 0 0 1 1.5.621l6.13 6.24 15-15.21a2.12 2.12 0 0 1 3.621 1.5 2.12 2.12 0 0 1-.621 1.5l-16.47 16.75a2.156 2.156 0 0 1-1.5.63Z" fill="#24272D"/><path d="M140.73 217.58a28.633 28.633 0 0 1-26.459-17.669 28.626 28.626 0 0 1 6.204-31.205 28.626 28.626 0 0 1 31.206-6.205 28.631 28.631 0 0 1 17.669 26.459 28.663 28.663 0 0 1-28.62 28.62Zm0-53a24.389 24.389 0 0 0-23.933 29.142 24.396 24.396 0 0 0 19.161 19.169 24.394 24.394 0 0 0 29.152-23.921 24.42 24.42 0 0 0-24.38-24.4v.01Z" fill="#24272D"/><defs><clipPath id="a"><path fill="#fff" transform="translate(0 9)" d="M0 0h520v345.2H0z"/></clipPath></defs></svg>